<?xml version="1.0" encoding="utf-8"?>
<!-- Generator: Adobe Illustrator 20.0.0, SVG Export Plug-In . SVG Version: 6.00 Build 0)  -->
<svg version="1.1" id="Layer_1" xmlns="http://www.w3.org/2000/svg" xmlns:xlink="http://www.w3.org/1999/xlink" x="0px" y="0px"
	 viewBox="0 0 420 200" style="enable-background:new 0 0 420 200;" xml:space="preserve">
<style type="text/css">
	.st0{fill:#FFFFFF;}
</style>
<g>
	<g>
		<path class="st0" d="M68,55.4V64h20.6v8.6H68v8.7h23.5v8.6H57V46.8h33.8v8.6H68z"/>
		<path class="st0" d="M129.4,80.7v9.2h-29.3V46.8h11v34H129.4z"/>
		<path class="st0" d="M171,46.8c11,0,17.4,5.4,17.4,15c0,10.1-6.3,16-17.4,16h-7.8v12.1h-11V46.8H171z M163.1,69.1h7.3
			c4.8,0,7.6-2.4,7.6-7c0-4.5-2.8-6.8-7.6-6.8h-7.3V69.1z"/>
		<path class="st0" d="M239.5,68.3c0,12.6-10,22.1-23.4,22.1c-13.3,0-23.3-9.5-23.3-22.1c0-12.6,10-21.9,23.3-21.9
			C229.5,46.4,239.5,55.8,239.5,68.3z M204.1,68.3c0,7.3,5.6,12.9,12.2,12.9c6.7,0,12-5.6,12-12.9c0-7.3-5.3-12.8-12-12.8
			C209.6,55.6,204.1,61.1,204.1,68.3z"/>
		<path class="st0" d="M265.5,46.8c13.6,0,22.9,8.8,22.9,21.6c0,12.8-9.5,21.6-23.4,21.6h-18.1V46.8H265.5z M257.9,81.2h7.8
			c6.7,0,11.5-5.2,11.5-12.8c0-7.6-5.1-12.9-12-12.9h-7.3V81.2z"/>
		<path class="st0" d="M306.8,55.4V64h20.6v8.6h-20.6v8.7h23.5v8.6h-34.5V46.8h33.8v8.6H306.8z"/>
		<path class="st0" d="M358.6,77.8h-0.3h-8.3v12.1h-11V46.8h19.3c11.4,0,17.9,5.4,17.9,15c0,6.6-2.8,11.3-7.8,13.9l9.1,14.2H365
			L358.6,77.8z M358.2,69.1c4.7,0,7.5-2.4,7.5-7c0-4.5-2.8-6.8-7.5-6.8h-8.3v13.7H358.2z"/>
	</g>
	<g>
		<path class="st0" d="M18.4,110.2c12.6,0,22.2,9.3,22.2,21.6c0,12.3-9.7,21.6-22.4,21.6H1v-43.2H18.4z M5.9,148.7h12.6
			c9.6,0,17.1-7.2,17.1-16.8c0-9.7-7.6-16.9-17.3-16.9H5.9V148.7z"/>
		<path class="st0" d="M56.2,115v14.2h21.8v4.7H56.2v14.8h25.2v4.7H51.2v-43.2h29.3v4.7H56.2z"/>
		<path class="st0" d="M146.7,135.6c0,11.2-6.8,18-18.1,18c-11.3,0-18.2-6.8-18.2-18v-25.4h4.9v25.4c0,8.4,5.1,13.3,13.3,13.3
			c8.2,0,13.1-4.9,13.1-13.3v-25.4h4.9V135.6z"/>
		<path class="st0" d="M191.2,153.4l-25.9-34.6v34.6h-4.9v-43.2h5.1l25.9,34.7v-34.7h4.9v43.2H191.2z"/>
		<path class="st0" d="M242.6,115v38.4h-4.9V115h-14.1v-4.7h33.1v4.7H242.6z"/>
		<path class="st0" d="M284.8,139.6c-0.9,0.1-1.9,0.1-2.9,0.1h-11.5v13.6h-4.9v-43.2h16.4c10.8,0,17,5.3,17,14.5
			c0,7.2-3.5,12-9.7,14l10.1,14.7h-5.6L284.8,139.6z M281.9,135c7.8,0,12.3-3.5,12.3-10.2c0-6.5-4.4-9.9-12.3-9.9h-11.5v20H281.9z"
			/>
		<path class="st0" d="M315.4,142.5l-4.8,10.9h-5.2l19.4-43.2h5.1l19.3,43.2h-5.4l-4.8-10.9H315.4z M327.2,115.8l-9.6,21.9h19.4
			L327.2,115.8z"/>
		<path class="st0" d="M375.3,140.4c0,8.4-4.6,13.2-12.3,13.2c-4.8,0-8.9-2.3-12-6.2l2.5-3.9c2.7,3.3,6.1,5,9.4,5
			c4.7,0,7.4-2.8,7.4-8.2V115h-15.4v-4.7h20.4V140.4z"/>
		<path class="st0" d="M393.8,115v14.2h21.8v4.7h-21.8v14.8H419v4.7h-30.1v-43.2h29.3v4.7H393.8z"/>
	</g>
</g>
</svg>
